<svg width="16" height="17" viewBox="0 0 16 17" fill="none" xmlns="http://www.w3.org/2000/svg">
<path d="M13.3554 0.595215L9.07617 0.595215C6.78923 0.595215 4.64982 1.72449 3.35955 3.61269L0 8.5291L3.35955 13.4455C4.64982 15.3337 6.78923 16.463 9.07617 16.463H13.3554C14.816 16.463 16 15.2789 16 13.8184C16 12.3578 14.816 11.1737 13.3554 11.1737C11.8948 11.1737 10.7107 9.98969 10.7107 8.5291C10.7107 7.06851 11.8948 5.88447 13.3554 5.88447C14.816 5.88447 16 4.70043 16 3.23984C16 1.77926 14.816 0.595215 13.3554 0.595215Z" fill="#1D005B"/>
<path d="M13.3554 0.595215L9.07617 0.595215C6.78923 0.595215 4.64982 1.72449 3.35955 3.61269L0 8.5291L3.35955 13.4455C4.64982 15.3337 6.78923 16.463 9.07617 16.463H13.3554C14.816 16.463 16 15.2789 16 13.8184C16 12.3578 14.816 11.1737 13.3554 11.1737C11.8948 11.1737 10.7107 9.98969 10.7107 8.5291C10.7107 7.06851 11.8948 5.88447 13.3554 5.88447C14.816 5.88447 16 4.70043 16 3.23984C16 1.77926 14.816 0.595215 13.3554 0.595215Z" fill="url(#paint0_linear_222_412)"/>
<path d="M13.3554 0.595215L9.07617 0.595215C6.78923 0.595215 4.64982 1.72449 3.35955 3.61269L0 8.5291L3.35955 13.4455C4.64982 15.3337 6.78923 16.463 9.07617 16.463H13.3554C14.816 16.463 16 15.2789 16 13.8184C16 12.3578 14.816 11.1737 13.3554 11.1737C11.8948 11.1737 10.7107 9.98969 10.7107 8.5291C10.7107 7.06851 11.8948 5.88447 13.3554 5.88447C14.816 5.88447 16 4.70043 16 3.23984C16 1.77926 14.816 0.595215 13.3554 0.595215Z" fill="#7446D7"/>
<path d="M13.3554 0.595215L9.07617 0.595215C6.78923 0.595215 4.64982 1.72449 3.35955 3.61269L0 8.5291L3.35955 13.4455C4.64982 15.3337 6.78923 16.463 9.07617 16.463H13.3554C14.816 16.463 16 15.2789 16 13.8184C16 12.3578 14.816 11.1737 13.3554 11.1737C11.8948 11.1737 10.7107 9.98969 10.7107 8.5291C10.7107 7.06851 11.8948 5.88447 13.3554 5.88447C14.816 5.88447 16 4.70043 16 3.23984C16 1.77926 14.816 0.595215 13.3554 0.595215Z" fill="url(#paint1_linear_222_412)"/>
<defs>
<linearGradient id="paint0_linear_222_412" x1="1.52311" y1="-0.0575473" x2="13.708" y2="14.956" gradientUnits="userSpaceOnUse">
<stop stop-color="white" stop-opacity="0.22"/>
<stop offset="1" stop-color="white" stop-opacity="0"/>
</linearGradient>
<linearGradient id="paint1_linear_222_412" x1="-2.35294" y1="-7.96094" x2="10.2451" y2="14.7484" gradientUnits="userSpaceOnUse">
<stop stop-color="#8E73C6" stop-opacity="0.53"/>
<stop offset="1" stop-color="white" stop-opacity="0"/>
</linearGradient>
</defs>
</svg>
