<svg width="41" height="40" viewBox="0 0 41 40" fill="none" xmlns="http://www.w3.org/2000/svg">
<g clip-path="url(#clip0_201_4)">
<path fill-rule="evenodd" clip-rule="evenodd" d="M20.4389 0C9.13672 0 0 9.39583 0 21.0198C0 30.3114 5.85421 38.1765 13.9756 40.9603C14.9909 41.1695 15.3629 40.508 15.3629 39.9515C15.3629 39.4642 15.3294 37.7939 15.3294 36.0535C9.64378 37.3066 8.45981 33.5478 8.45981 33.5478C7.54609 31.1117 6.19225 30.4856 6.19225 30.4856C4.33136 29.198 6.32781 29.198 6.32781 29.198C8.39203 29.3372 9.47518 31.3556 9.47518 31.3556C11.3022 34.557 14.2462 33.6525 15.4306 33.0955C15.5997 31.7383 16.1414 30.7987 16.7167 30.2768C12.182 29.7895 7.41096 27.9799 7.41096 19.9059C7.41096 17.6091 8.22259 15.7299 9.50865 14.2684C9.30574 13.7465 8.59494 11.5885 9.71198 8.70011C9.71198 8.70011 11.4377 8.1432 15.329 10.8577C16.995 10.3976 18.713 10.1636 20.4389 10.1616C22.1647 10.1616 23.9239 10.4055 25.5484 10.8577C29.4401 8.1432 31.1659 8.70011 31.1659 8.70011C32.2829 11.5885 31.5717 13.7465 31.3688 14.2684C32.6887 15.7299 33.4669 17.6091 33.4669 19.9059C33.4669 27.9799 28.6958 29.7545 24.1272 30.2768C24.8719 30.9379 25.5145 32.1905 25.5145 34.1744C25.5145 36.9931 25.4811 39.2554 25.4811 39.9511C25.4811 40.508 25.8534 41.1695 26.8684 40.9607C34.9897 38.1761 40.8439 30.3114 40.8439 21.0198C40.8774 9.39583 31.7072 0 20.4389 0Z" fill="white"/>
</g>
<defs>
<clipPath id="clip0_201_4">
<rect width="41" height="41" fill="white"/>
</clipPath>
</defs>
</svg>
